<svg width="24" height="24" viewBox="0 0 24 24" fill="none" xmlns="http://www.w3.org/2000/svg">
<g id="Company Groups">
<g id="Vector">
<path d="M15 5H13V3H15C16.1046 3 17 3.89543 17 5V19C17 20.1046 16.1046 21 15 21H13V19H15V5Z" fill="#1D1E3F"/>
<path d="M9 19H11V21H9C7.89543 21 7 20.1046 7 19V5C7 3.89543 7.89543 3 9 3H11V5H9V19Z" fill="#1D1E3F"/>
</g>
<g id="Group 125">
<path id="Union" d="M6 11H4V19H6V21H4C2.89543 21 2 20.1046 2 19V11C2 9.89543 2.89543 9 4 9H6V11Z" fill="#1D1E3F"/>
</g>
<g id="Group 126">
<path id="Union_2" d="M18 19H20V11H18V9H20C21.1046 9 22 9.89543 22 11V19C22 20.1046 21.1046 21 20 21H18V19Z" fill="#1D1E3F"/>
</g>
<rect id="Rectangle 20" x="11" y="12" width="2" height="2" rx="0.5" fill="#1D1E3F"/>
<rect id="Rectangle 21" x="11" y="8" width="2" height="2" rx="0.5" fill="#1D1E3F"/>
</g>
</svg>
