<svg width="24" height="24" viewBox="0 0 24 24" fill="none" xmlns="http://www.w3.org/2000/svg">
<g id="Data Set">
<g id="Union">
<path d="M21 7.00195C21 7.55424 20.5523 8.00195 20 8.00195H4.00004C3.44776 8.00195 3.00004 7.55424 3.00004 7.00195V7.00195C3.00004 6.44967 3.44776 6.00195 4.00004 6.00195H20C20.5523 6.00195 21 6.44967 21 7.00195V7.00195Z" fill="#1D1E3F"/>
<path d="M21 12.0007C21 12.553 20.5523 13.0007 20 13.0007H4C3.44772 13.0007 3 12.553 3 12.0007V12.0007C3 11.4485 3.44772 11.0007 4 11.0007H20C20.5523 11.0007 21 11.4485 21 12.0007V12.0007Z" fill="#1D1E3F"/>
<path d="M3 17.0007C3 17.553 3.44772 18.0007 4 18.0007H20C20.5523 18.0007 21 17.553 21 17.0007V17.0007C21 16.4485 20.5523 16.0007 20 16.0007H4C3.44772 16.0007 3 16.4485 3 17.0007V17.0007Z" fill="#1D1E3F"/>
</g>
</g>
</svg>
