<svg width="24" height="24" viewBox="0 0 24 24" fill="none" xmlns="http://www.w3.org/2000/svg">
<g id="Metrics">
<g id="Union">
<path d="M11.3358 9.92157L6.12132 4.7071C5.7308 4.31658 5.09763 4.31658 4.70711 4.7071C4.31658 5.09763 4.31658 5.73079 4.70711 6.12132L9.92157 11.3358L11.3358 9.92157Z" fill="#1D1E3F"/>
<path d="M12.75 14.1642L16.5858 18H14V20H19C19.5523 20 20 19.5523 20 19V14H18V16.5858L14.1642 12.75L12.75 14.1642Z" fill="#1D1E3F"/>
<path d="M20 5C20 4.44771 19.5523 4 19 4H14V6H16.6716L4.79292 17.8787C4.4024 18.2692 4.4024 18.9024 4.79292 19.2929C5.18345 19.6834 5.81661 19.6834 6.20714 19.2929L18 7.5V10H20V5Z" fill="#1D1E3F"/>
</g>
</g>
</svg>
