<svg width="24" height="24" viewBox="0 0 24 24" fill="none" xmlns="http://www.w3.org/2000/svg">
<g id="Source">
<g id="Group 132">
<path id="Union" d="M21.3558 9.7467C21.1766 8.61495 19.9705 7.96317 18.9255 8.43332L13 11.0994L13.7549 4.98493C13.8851 3.93041 13.0625 3 12 3C10.9374 3 10.1148 3.93041 10.245 4.98493L11 11.0993L5.07442 8.43332C4.02946 7.96317 2.82342 8.61495 2.64417 9.7467C2.49784 10.6706 3.1088 11.5446 4.02671 11.7246L10.1415 12.9233L5.62899 18.123C4.85623 19.0134 5.2424 20.4037 6.36368 20.768C7.09681 21.0062 7.89708 20.7039 8.28955 20.0404L12 13.7679L15.7105 20.0404C16.1029 20.7039 16.9032 21.0062 17.6363 20.768C18.7576 20.4037 19.1438 19.0134 18.371 18.123L13.8585 12.9233L19.9733 11.7246C20.8912 11.5446 21.5021 10.6706 21.3558 9.7467Z" fill="#1D1E3F"/>
</g>
</g>
</svg>
