<?xml version="1.0" encoding="UTF-8"?><svg id="Ebene_2" xmlns="http://www.w3.org/2000/svg" viewBox="0 0 2499.58 600"><defs><style>.cls-1{fill:#2d2374;}</style></defs><g id="Logo"><path class="cls-1" d="m938.64,30.43c-67.2-50.4-162.52-36.78-212.92,30.42l-303.99,405.31c-27.72,36.96-20.23,89.39,16.73,117.11,36.96,27.72,89.39,20.23,117.11-16.73L941.68,51.72c5.04-6.72,3.68-16.25-3.04-21.29h0Z"/><path class="cls-1" d="m33.46,240.31c36.96-27.72,89.39-20.23,117.11,16.73l58.55,78.07,174.33-232.44c50.4-67.2,145.72-80.81,212.92-30.42h0c6.72,5.04,8.08,14.57,3.04,21.29l-322.21,429.61c-2.66,3.73-5.66,7.26-8.98,10.57-6.94,6.95-14.9,12.47-23.46,16.49-22.22,10.44-48.44,10.79-71.29,0-8.56-4.02-16.52-9.54-23.46-16.49-3.32-3.31-6.32-6.85-8.98-10.57L16.73,357.41c-27.72-36.96-20.23-89.39,16.73-117.11Z"/><path class="cls-1" d="m950,239.6h57.2l20.4,84.8,14.4,64h1.6l16.8-64,24-84.8h54l24.4,84.8,17.2,64h1.6l14.4-64,20.4-84.8h54.8l-58,210h-62l-25.6-88.8-14.8-54.4h-1.2l-14.4,54.4-25.6,88.8h-60.8l-58.8-210Z"/><path class="cls-1" d="m1310.4,239.6h59.2v210h-59.2v-210Zm63.6-60.6c0,18.78-15.22,34-34,34s-34-15.22-34-34,15.22-34,34-34,34,15.22,34,34Z"/><path class="cls-1" d="m1432.79,153.6h59.2v174.8h2.4l26-38.8,42-50h65.6l-70,80.4,78,129.6h-70.4l-47.2-88.8-26.4,29.6v59.2h-59.2V153.6Z"/><path class="cls-1" d="m1663.59,239.6h59.2v210h-59.2v-210Zm63.6-60.6c0,18.78-15.22,34-34,34s-34-15.22-34-34,15.22-34,34-34,34,15.22,34,34Z"/><path class="cls-1" d="m1785.99,449.6v-210h59.2v45.6h2c4.8-23.2,20.8-45.6,53.6-45.6h10.4v55.2h-14.8c-34.4,0-51.2,7.6-51.2,32v122.8h-59.2Z"/><path class="cls-1" d="m2095.19,449.6c-21.2,0-36.4-14.4-40-36.8h-2.4c-6.4,27.2-29.6,41.6-61.6,41.6-42,0-65.2-24.8-65.2-61.2,0-44.4,34.4-65.6,90-65.6h33.2v-13.2c0-20.4-10-33.2-34.8-33.2s-36,12-45.2,24.8l-35.2-31.2c16.8-24.8,40.8-40,84.8-40,59.2,0,89.6,27.2,89.6,76.8v92h19.6v46h-32.8Zm-46-63.6v-24.8h-28.8c-22.8,0-34.8,8.4-34.8,23.6v6c0,15.2,10,22.4,27.6,22.4,19.6,0,36-8,36-27.2Z"/><path class="cls-1" d="m2238.78,449.6c-40.8,0-62.4-21.2-62.4-61.2v-102.8h-29.6v-46h14.8c16,0,20.8-8,20.8-22.4v-34.4h53.2v56.8h41.6v46h-41.6v118h38.4v46h-35.2Z"/><path class="cls-1" d="m2303.58,344.4c0-66.4,35.2-109.6,98.4-109.6,69.6,0,97.6,50.4,97.6,107.2v17.6h-134.8v3.2c0,27.6,14.8,45.2,46.4,45.2,24.8,0,38.4-11.6,51.6-25.2l29.6,36.8c-18.8,21.6-49.6,34.8-88,34.8-64.4,0-100.8-42.8-100.8-110Zm61.2-22.8v3.2h73.6v-3.6c0-25.6-11.6-42.8-35.2-42.8s-38.4,17.2-38.4,43.2Z"/></g></svg>