<?xml version="1.0" encoding="UTF-8"?><svg id="Ebene_2" xmlns="http://www.w3.org/2000/svg" viewBox="0 0 976.45 600"><defs><style>.cls-1{fill:#2d2374;}</style></defs><g id="Logo"><path class="cls-1" d="m969.91,32.71c-72.23-54.17-174.7-39.53-228.88,32.7l-293.05,390.73c-29.8,39.73-21.74,96.09,17.98,125.88,39.73,29.8,96.09,21.74,125.88-17.98L973.18,55.59c5.42-7.22,3.95-17.47-3.27-22.89h0Z"/><path class="cls-1" d="m35.97,233.79c39.73-29.8,96.09-21.74,125.88,17.98l50.68,67.57,159.81-213.07c54.17-72.23,156.65-86.87,228.88-32.7h0c7.22,5.42,8.69,15.66,3.27,22.89l-318.76,425.02c-2.86,4-6.08,7.81-9.65,11.36-7.47,7.47-16.02,13.4-25.22,17.72-24.56,11.6-52.75,11.22-76.63,0-9.2-4.32-17.76-10.25-25.23-17.72-3.57-3.55-6.79-7.36-9.65-11.36L17.99,359.68c-29.8-39.73-21.74-96.09,17.98-125.88Z"/></g></svg>