<?xml version="1.0" encoding="UTF-8"?><svg id="Ebene_2" xmlns="http://www.w3.org/2000/svg" viewBox="0 0 944.73 600"><defs><style>.cls-1{fill:#2d2374;}</style></defs><g id="Logo"><path class="cls-1" d="m938.64,30.43c-67.2-50.4-162.52-36.78-212.92,30.42l-303.99,405.31c-27.72,36.96-20.23,89.39,16.73,117.11,36.96,27.72,89.39,20.23,117.11-16.73L941.68,51.72c5.04-6.72,3.68-16.25-3.04-21.29h0Z"/><path class="cls-1" d="m33.46,240.31c36.96-27.72,89.39-20.23,117.11,16.73l58.55,78.07,174.33-232.44c50.4-67.2,145.72-80.81,212.92-30.42h0c6.72,5.04,8.08,14.57,3.04,21.29l-322.21,429.61c-2.66,3.73-5.66,7.26-8.98,10.57-6.94,6.95-14.9,12.47-23.46,16.49-22.22,10.44-48.44,10.79-71.29,0-8.56-4.02-16.52-9.54-23.46-16.49-3.32-3.31-6.32-6.85-8.98-10.57L16.73,357.41c-27.72-36.96-20.23-89.39,16.73-117.11Z"/></g></svg>