<?xml version="1.0" encoding="UTF-8"?><svg id="Ebene_2" xmlns="http://www.w3.org/2000/svg" viewBox="0 0 2932.24 611"><defs><style>.cls-1{fill:#2d2374;}</style></defs><g id="Logo"><path class="cls-1" d="m969.91,32.71c-72.23-54.17-174.7-39.53-228.88,32.7l-293.05,390.73c-29.8,39.73-21.74,96.09,17.98,125.88,39.73,29.8,96.09,21.74,125.88-17.98L973.18,55.59c5.42-7.22,3.95-17.47-3.27-22.89h0Z"/><path class="cls-1" d="m35.97,233.79c39.73-29.8,96.09-21.74,125.88,17.98l50.68,67.57,159.81-213.07c54.17-72.23,156.65-86.87,228.88-32.7h0c7.22,5.42,8.69,15.66,3.27,22.89l-318.76,425.02c-2.86,4-6.08,7.81-9.65,11.36-7.47,7.47-16.02,13.4-25.22,17.72-24.56,11.6-52.75,11.22-76.63,0-9.2-4.32-17.76-10.25-25.23-17.72-3.57-3.55-6.79-7.36-9.65-11.36L17.99,359.68c-29.8-39.73-21.74-96.09,17.98-125.88Z"/><path class="cls-1" d="m977.26,211h71.5l25.5,106,18,80h2l21-80,30-106h67.5l30.5,106,21.5,80h2l18-80,25.5-106h68.5l-72.5,262.5h-77.5l-32-111-18.5-68h-1.5l-18,68-32,111h-76l-73.5-262.5Z"/><path class="cls-1" d="m1421.75,146.5v-11c0-21,13-36.5,43-36.5s43,15.5,43,36.5v11c0,21-13,36.5-43,36.5s-43-15.5-43-36.5Zm6,64.5h74v262.5h-74V211Z"/><path class="cls-1" d="m1580.75,103.5h74v218.5h3l32.5-48.5,52.5-62.5h82l-87.5,100.5,97.5,162h-88l-59-111-33,37v74h-74V103.5Z"/><path class="cls-1" d="m1863.25,146.5v-11c0-21,13-36.5,43-36.5s43,15.5,43,36.5v11c0,21-13,36.5-43,36.5s-43-15.5-43-36.5Zm6,64.5h74v262.5h-74V211Z"/><path class="cls-1" d="m2022.25,473.5V211h74v57h2.5c6-29,26-57,67-57h13v69h-18.5c-43,0-64,9.5-64,40v153.5h-74Z"/><path class="cls-1" d="m2408.75,473.5c-26.5,0-45.5-18-50-46h-3c-8,34-37,52-77,52-52.5,0-81.5-31-81.5-76.5,0-55.5,43-82,112.5-82h41.5v-16.5c0-25.5-12.5-41.5-43.5-41.5s-45,15-56.5,31l-44-39c21-31,51-50,106-50,74,0,112,34,112,96v115h24.5v57.5h-41Zm-57.5-79.5v-31h-36c-28.5,0-43.5,10.5-43.5,29.5v7.5c0,19,12.5,28,34.5,28,24.5,0,45-10,45-34Z"/><path class="cls-1" d="m2588.24,473.5c-51,0-78-26.5-78-76.5v-128.5h-37v-57.5h18.5c20,0,26-10,26-28v-43h66.5v71h52v57.5h-52v147.5h48v57.5h-44Z"/><path class="cls-1" d="m2669.24,342c0-83,44-137,123-137,87,0,122,63,122,134v22h-168.5v4c0,34.5,18.5,56.5,58,56.5,31,0,48-14.5,64.5-31.5l37,46c-23.5,27-62,43.5-110,43.5-80.5,0-126-53.5-126-137.5Zm76.5-28.5v4h92v-4.5c0-32-14.5-53.5-44-53.5s-48,21.5-48,54Z"/></g></svg>