<?xml version="1.0" encoding="UTF-8"?><svg id="Ebene_2" xmlns="http://www.w3.org/2000/svg" viewBox="0 0 979.7 600"><defs><style>.cls-1{fill:#2d2374;}</style></defs><g id="Logo"><path class="cls-1" d="m972.94,33.81c-74.66-56-180.59-40.87-236.58,33.8l-287.76,383.68c-30.8,41.07-22.48,99.32,18.59,130.12,41.06,30.8,99.32,22.48,130.12-18.59L976.32,57.47c5.6-7.47,4.09-18.06-3.38-23.66Z"/><path class="cls-1" d="m37.18,230.64c41.07-30.8,99.32-22.48,130.12,18.59l46.88,62.5,152.79-203.72c56-74.66,161.92-89.8,236.59-33.8,7.47,5.6,8.98,16.19,3.38,23.66l-317.1,422.8c-2.96,4.14-6.29,8.07-9.98,11.75-7.72,7.72-16.56,13.85-26.07,18.32-25.39,11.99-54.53,11.6-79.21,0-9.51-4.47-18.35-10.59-26.07-18.32-3.69-3.68-7.02-7.61-9.98-11.75L18.59,360.76c-30.8-41.06-22.48-99.32,18.59-130.12Z"/></g></svg>