<svg width="1204" height="1204" viewBox="0 0 1204 1204" fill="none" xmlns="http://www.w3.org/2000/svg">
<rect x="1" y="1" width="1202" height="1202" rx="601" fill="#EDEBF9" stroke="#EDEBF9" stroke-width="2"/>
<path d="M1038.88 368.305C969.746 316.453 871.663 330.463 819.82 399.601L553.375 754.861C524.857 792.888 532.561 846.824 570.588 875.342C608.607 903.861 662.551 896.157 691.07 858.129L1042.01 390.213C1047.19 383.296 1045.79 373.49 1038.88 368.305Z" fill="#2D2374"/>
<path d="M172.431 550.556C210.459 522.037 264.394 529.741 292.913 567.769L336.32 625.639L477.792 437.009C529.644 367.88 627.718 353.861 696.857 405.713C703.774 410.898 705.172 420.704 699.987 427.62L406.376 819.102C403.635 822.935 400.552 826.574 397.135 829.982C389.987 837.13 381.802 842.806 372.996 846.945C349.487 858.046 322.505 857.685 299.653 846.945C290.848 842.806 282.663 837.139 275.515 829.982C272.098 826.574 269.015 822.935 266.274 819.102L155.218 671.037C126.7 633.019 134.403 579.074 172.431 550.556Z" fill="#2D2374"/>
</svg>
